HIERARCHY
ROOT Hips
{
	OFFSET 0.000000 0.000000 0.000000
	CHANNELS 6 Xposition Yposition Zposition Zrotation Yrotation Xrotation 
	JOINT LowerBack
	{
		OFFSET 0.000000 0.000000 0.000000
		CHANNELS 3 Zrotation Yrotation Xrotation
		JOINT Spine
		{
			OFFSET 0.028270 2.035590 -0.193380
			CHANNELS 3 Zrotation Yrotation Xrotation
			JOINT Spine1
			{
				OFFSET 0.056720 2.048850 -0.042750
				CHANNELS 3 Zrotation Yrotation Xrotation
				JOINT Neck
				{
					OFFSET 0.000000 0.000000 0.000000
					CHANNELS 3 Zrotation Yrotation Xrotation
					JOINT Neck1
					{
						OFFSET -0.054170 1.746240 0.172020
						CHANNELS 3 Zrotation Yrotation Xrotation
						JOINT Head
						{
							OFFSET 0.104070 1.761360 -0.123970
							CHANNELS 3 Zrotation Yrotation Xrotation
							End Site
							{
								OFFSET 0.000000 0.000000 0.000000
							}
						}
					}
				}
				JOINT LeftShoulder
				{
					OFFSET 0.000000 0.000000 0.000000
					CHANNELS 3 Zrotation Yrotation Xrotation
					JOINT LeftArm
					{
						OFFSET 3.362410 1.200890 -0.311210
						CHANNELS 3 Zrotation Yrotation Xrotation
						JOINT LeftForeArm
						{
							OFFSET 4.983000 -0.000000 -0.000000
							CHANNELS 3 Zrotation Yrotation Xrotation
							JOINT LeftHand
							{
								OFFSET 3.483560 -0.000000 -0.000000
								CHANNELS 3 Zrotation Yrotation Xrotation
								JOINT LeftFingerBase
								{
									OFFSET 0.000000 0.000000 0.000000
									CHANNELS 3 Zrotation Yrotation Xrotation
									JOINT LeftHandIndex1
									{
										OFFSET 0.715260 -0.000000 -0.000000
										CHANNELS 3 Zrotation Yrotation Xrotation
										End Site
										{
											OFFSET 0.000000 0.000000 0.000000
										}
									}
								}
								JOINT LThumb
								{
									OFFSET 0.000000 0.000000 0.000000
									CHANNELS 3 Zrotation Yrotation Xrotation
									End Site
									{
										OFFSET 0.000000 0.000000 0.000000
									}
								}
							}
						}
					}
				}
				JOINT RightShoulder
				{
					OFFSET 0.000000 0.000000 0.000000
					CHANNELS 3 Zrotation Yrotation Xrotation
					JOINT RightArm
					{
						OFFSET -3.136600 1.374050 -0.404650
						CHANNELS 3 Zrotation Yrotation Xrotation
						JOINT RightForeArm
						{
							OFFSET -5.241900 -0.000000 -0.000000
							CHANNELS 3 Zrotation Yrotation Xrotation
							JOINT RightHand
							{
								OFFSET -3.444170 -0.000000 -0.000000
								CHANNELS 3 Zrotation Yrotation Xrotation
								JOINT RightFingerBase
								{
									OFFSET 0.000000 0.000000 0.000000
									CHANNELS 3 Zrotation Yrotation Xrotation
									JOINT RightHandIndex1
									{
										OFFSET -0.622530 -0.000000 -0.000000
										CHANNELS 3 Zrotation Yrotation Xrotation
										End Site
										{
											OFFSET 0.000000 0.000000 0.000000
										}
									}
								}
								JOINT RThumb
								{
									OFFSET 0.000000 0.000000 0.000000
									CHANNELS 3 Zrotation Yrotation Xrotation
									End Site
									{
										OFFSET 0.000000 0.000000 0.000000
									}
								}
							}
						}
					}
				}
			}
		}
	}
}
}
MOTION
Frames: 18
Frame Time: 0.008333
2.655834 16.275491 -2.222772 -172.159052 67.907072 -155.596352 -0.133191 -2.482782 -0.356179 -0.541164 -2.482928 -3.158328 -6.853797 -2.356799 -1.455411 9.931934 -13.975422 -8.872196 -3.024662 -0.213161 -0.368007 0.000000 0.000000 0.000000 3.301511 8.006936 -0.301706 -73.856399 -0.623240 35.058392 -179.527388 -73.945241 179.913230 11.148933 -7.716709 -0.846136 -0.330154 0.753004 0.000000 0.000000 0.000000 0.000000 0.000000 0.000000 0.000000 8.870061 -8.498194 -0.584568 74.867686 -6.767443 29.057234 179.820214 79.783128 179.973314 -3.224997 10.161743 -0.302362 0.008651 -0.585816 -0.000000 0.000000 0.000000 0.000000 0.000000 0.000000 0.000000 
2.865836 16.335374 -2.316192 -171.861301 67.316366 -155.191874 0.235929 -2.609742 -0.482638 -0.419423 -2.635511 -3.171918 -6.684196 -2.511755 -1.435776 9.764820 -14.377338 -8.957563 -2.984619 -0.209670 -0.385730 0.000000 0.000000 0.000000 3.921666 7.620738 -0.362603 -74.890649 -1.142997 35.064589 -179.498498 -73.106308 179.913755 10.700224 -7.904104 -0.832745 -0.320442 0.781291 0.000000 0.000000 0.000000 0.000000 0.000000 0.000000 0.000000 8.395918 -8.963625 -0.574994 74.211571 -7.785482 29.046402 179.810215 78.700411 179.972986 -3.118110 10.364042 -0.297472 0.002367 -0.591383 -0.000000 0.000000 0.000000 0.000000 0.000000 0.000000 0.000000 
3.079781 16.405895 -2.411130 -171.626678 66.798979 -154.872528 0.547297 -2.738756 -0.607445 -0.308297 -2.786203 -3.187137 -6.510450 -2.665699 -1.420209 9.624680 -14.770856 -9.048187 -2.949109 -0.206533 -0.404656 0.000000 0.000000 0.000000 4.607409 7.268288 -0.435757 -75.920302 -1.462032 35.028724 -179.480288 -72.183192 179.914302 10.273394 -8.086907 -0.818764 -0.309259 0.808451 -0.000000 0.000000 0.000000 0.000000 0.000000 0.000000 0.000000 7.972426 -9.409058 -0.571267 73.520830 -8.743151 29.101373 179.797837 77.578516 179.973080 -2.935118 10.584730 -0.284988 -0.005275 -0.598356 -0.000000 0.000000 0.000000 0.000000 0.000000 0.000000 0.000000 
3.297310 16.484696 -2.510162 -171.289242 66.294776 -154.408920 0.904121 -2.869130 -0.802239 -0.186212 -2.943217 -3.217065 -6.325155 -2.828460 -1.400546 9.481992 -15.145643 -9.145073 -2.912682 -0.203429 -0.423836 0.000000 0.000000 0.000000 5.290942 6.967712 -0.513617 -76.931243 -1.605922 34.978641 -179.475846 -71.218529 179.914623 9.898216 -8.251886 -0.805473 -0.298026 0.834042 -0.000000 0.000000 0.000000 0.000000 0.000000 0.000000 0.000000 7.546790 -9.827995 -0.578823 72.807505 -9.639049 29.202755 179.783164 76.471754 179.973552 -2.694745 10.800404 -0.265913 -0.013897 -0.605342 -0.000000 0.000000 0.000000 0.000000 0.000000 0.000000 0.000000 
3.516653 16.572499 -2.611828 -170.852160 65.836642 -153.898906 1.289169 -2.993213 -0.966542 -0.060608 -3.095384 -3.244128 -6.142934 -2.986683 -1.383407 9.349838 -15.486872 -9.238534 -2.881846 -0.200772 -0.442469 0.000000 0.000000 0.000000 5.925062 6.721276 -0.586383 -77.857771 -1.635454 34.924792 -179.482062 -70.252265 179.914572 9.597844 -8.382426 -0.793980 -0.288183 0.857007 -0.000000 0.000000 0.000000 0.000000 0.000000 0.000000 0.000000 7.167767 -10.207523 -0.592970 72.088714 -10.444893 29.312917 179.766799 75.444759 179.974316 -2.419844 10.986369 -0.241649 -0.022954 -0.611443 -0.000000 0.000000 0.000000 0.000000 0.000000 0.000000 0.000000 
3.739742 16.666756 -2.714333 -170.521142 65.417454 -153.478800 1.620966 -3.122431 -1.155938 0.054771 -3.249680 -3.276787 -5.962803 -3.148438 -1.363097 9.227760 -15.796937 -9.327973 -2.852478 -0.198331 -0.459517 0.000000 0.000000 0.000000 6.527273 6.518334 -0.657202 -78.684610 -1.544742 34.885051 -179.501968 -69.305263 179.914140 9.372049 -8.482968 -0.785083 -0.279657 0.876904 -0.000000 0.000000 0.000000 0.000000 0.000000 0.000000 0.000000 6.826169 -10.554726 -0.617450 71.410808 -11.189698 29.415913 179.750282 74.532126 179.975333 -2.124447 11.123832 -0.213398 -0.032177 -0.615757 -0.000000 0.000000 0.000000 0.000000 0.000000 0.000000 0.000000 
3.964684 16.766953 -2.818158 -170.194656 65.033258 -153.103259 1.945101 -3.247440 -1.317876 0.166325 -3.398676 -3.305927 -5.791131 -3.304928 -1.341698 9.107607 -16.068355 -9.407214 -2.825967 -0.196177 -0.474221 0.000000 0.000000 0.000000 7.048142 6.366053 -0.718208 -79.386927 -1.394856 34.876248 -179.529638 -68.410462 179.913415 9.214434 -8.544854 -0.778088 -0.273155 0.893495 -0.000000 0.000000 0.000000 0.000000 0.000000 0.000000 0.000000 6.518633 -10.862619 -0.649275 70.790206 -11.865844 29.481669 179.734433 73.764632 179.976515 -1.824832 11.197254 -0.182858 -0.041249 -0.617520 -0.000000 0.000000 0.000000 0.000000 0.000000 0.000000 0.000000 
4.190942 16.871510 -2.923046 -169.874627 64.677315 -152.782735 2.267297 -3.365022 -1.442535 0.274511 -3.539271 -3.329555 -5.629999 -3.452644 -1.319025 8.982418 -16.300963 -9.473042 -2.800812 -0.194203 -0.485920 0.000000 0.000000 0.000000 7.473656 6.262440 -0.767364 -79.960338 -1.219577 34.911715 -179.560405 -67.590811 179.912619 9.103078 -8.570015 -0.771501 -0.268418 0.906840 -0.000000 0.000000 0.000000 0.000000 0.000000 0.000000 0.000000 6.230430 -11.131524 -0.687114 70.251116 -12.487599 29.489632 179.720653 73.149574 179.977788 -1.530886 11.199806 -0.151631 -0.050069 -0.616366 -0.000000 0.000000 0.000000 0.000000 0.000000 0.000000 0.000000 
4.418060 16.978527 -3.028948 -169.561831 64.339857 -152.519195 2.591442 -3.472063 -1.528600 0.379776 -3.668533 -3.347245 -5.479843 -3.588440 -1.295007 8.845411 -16.497189 -9.523779 -2.775108 -0.192269 -0.494237 0.000000 0.000000 0.000000 7.802089 6.202888 -0.804459 -80.413461 -1.044932 34.999100 -179.589436 -66.858845 179.912049 9.006018 -8.565157 -0.763531 -0.264628 0.917310 -0.000000 0.000000 0.000000 0.000000 0.000000 0.000000 0.000000 5.943465 -11.363252 -0.729413 69.812568 -13.074385 29.424845 179.710319 72.680490 179.979087 -1.247544 11.132997 -0.120714 -0.058680 -0.612283 -0.000000 0.000000 0.000000 0.000000 0.000000 0.000000 0.000000 
4.645794 17.085902 -3.135602 -169.266633 64.012690 -152.318355 2.917876 -3.566037 -1.579687 0.482215 -3.783975 -3.359252 -5.339725 -3.709727 -1.268696 8.692252 -16.662888 -9.560266 -2.746711 -0.190191 -0.499421 0.000000 0.000000 0.000000 8.040780 6.184294 -0.830517 -80.761855 -0.893420 35.143394 -179.612057 -66.220775 179.912011 8.890364 -8.533257 -0.751590 -0.260799 0.925203 -0.000000 0.000000 0.000000 0.000000 0.000000 0.000000 0.000000 5.641341 -11.562729 -0.774773 69.485207 -13.645598 29.279993 179.704479 72.339480 179.980345 -0.978255 11.005213 -0.091108 -0.067141 -0.605582 -0.000000 0.000000 0.000000 0.000000 0.000000 0.000000 0.000000 
4.874035 17.191412 -3.242788 -169.003187 63.685979 -152.183110 3.240902 -3.645775 -1.605910 0.580961 -3.884224 -3.367063 -5.208366 -3.815196 -1.239549 8.521889 -16.804742 -9.584644 -2.713865 -0.187818 -0.501958 0.000000 0.000000 0.000000 8.207337 6.200429 -0.847602 -81.027295 -0.777349 35.343960 -179.625134 -65.674647 179.912773 8.724799 -8.481421 -0.733684 -0.255763 0.930989 -0.000000 0.000000 0.000000 0.000000 0.000000 0.000000 0.000000 5.312011 -11.735100 -0.822002 69.272796 -14.220239 29.053542 179.703726 72.098476 179.981502 -0.724410 10.831620 -0.063508 -0.075555 -0.596898 -0.000000 0.000000 0.000000 0.000000 0.000000 0.000000 0.000000 
5.102836 17.292863 -3.349908 -168.799787 63.354044 -152.130656 3.548086 -3.711454 -1.614685 0.673872 -3.968736 -3.371709 -5.084565 -3.904359 -1.207527 8.337325 -16.930067 -9.599847 -2.675591 -0.185044 -0.502557 0.000000 0.000000 0.000000 8.324056 6.243127 -0.858261 -81.229679 -0.700673 35.595045 -179.627231 -65.214095 179.914517 8.486375 -8.415003 -0.708624 -0.248478 0.935000 -0.000000 0.000000 0.000000 0.000000 0.000000 0.000000 0.000000 4.952321 -11.886490 -0.869638 69.171047 -14.812041 28.750229 179.708008 71.928686 179.982510 -0.487911 10.631427 -0.038313 -0.083930 -0.587018 -0.000000 0.000000 0.000000 0.000000 0.000000 0.000000 0.000000 
5.332356 17.388160 -3.456427 -168.687441 63.010486 -152.177666 3.819540 -3.765285 -1.617120 0.757398 -4.038631 -3.374900 -4.967978 -3.978493 -1.173098 8.145407 -17.045970 -9.609185 -2.631803 -0.181843 -0.501908 0.000000 0.000000 0.000000 8.416272 6.301548 -0.865590 -81.388064 -0.656797 35.886915 -179.619248 -64.828827 179.917302 8.163570 -8.341743 -0.676113 -0.238166 0.937588 -0.000000 0.000000 0.000000 0.000000 0.000000 0.000000 0.000000 4.567758 -12.022941 -0.916741 69.168977 -15.430740 28.379619 179.716723 71.800687 179.983335 -0.270606 10.425873 -0.015916 -0.092219 -0.576802 -0.000000 0.000000 0.000000 0.000000 0.000000 0.000000 0.000000 
5.562861 17.475625 -3.561538 -168.702564 62.655127 -152.351616 4.033071 -3.810370 -1.616908 0.827356 -4.095603 -3.377153 -4.858794 -4.039358 -1.137811 7.955046 -17.157631 -9.615183 -2.583797 -0.178303 -0.500531 0.000000 0.000000 0.000000 8.506843 6.362964 -0.872478 -81.515457 -0.632336 36.205890 -179.603936 -64.503653 179.921034 7.759561 -8.267414 -0.637050 -0.224532 0.938994 -0.000000 0.000000 0.000000 0.000000 0.000000 0.000000 0.000000 4.172933 -12.149325 -0.962056 69.250044 -16.077671 27.955738 179.728781 71.693236 179.983961 -0.075905 10.234888 0.003485 -0.100237 -0.567018 -0.000000 0.000000 0.000000 0.000000 0.000000 0.000000 0.000000 
5.794370 17.553931 -3.664905 -168.860429 62.288361 -152.664954 4.171438 -3.849577 -1.613226 0.880090 -4.141397 -3.378099 -4.758891 -4.088646 -1.103073 7.776173 -17.268061 -9.619968 -2.533644 -0.174566 -0.498890 0.000000 0.000000 0.000000 8.609322 6.419390 -0.880833 -81.618667 -0.615406 36.540429 -179.584260 -64.230020 179.925503 7.290802 -8.197166 -0.593330 -0.207904 0.939388 -0.000000 0.000000 0.000000 0.000000 0.000000 0.000000 0.000000 3.787817 -12.268759 -1.004959 69.394500 -16.745995 27.493239 179.742925 71.591783 179.984373 0.093014 10.074365 0.019794 -0.107763 -0.558274 -0.000000 0.000000 0.000000 0.000000 0.000000 0.000000 0.000000 
6.026752 17.622292 -3.766126 -169.159446 61.916406 -153.120899 4.227984 -3.884347 -1.597883 0.913660 -4.176889 -3.376321 -4.670488 -4.127049 -1.071098 7.617508 -17.377257 -9.624281 -2.484406 -0.170866 -0.497183 0.000000 0.000000 0.000000 8.727081 6.464540 -0.891506 -81.698487 -0.593504 36.876475 -179.563520 -63.998365 179.930385 6.785670 -8.132262 -0.547542 -0.189173 0.938835 -0.000000 0.000000 0.000000 0.000000 0.000000 0.000000 0.000000 3.434963 -12.381629 -1.044497 69.580523 -17.419497 27.007695 179.757695 71.492657 179.984576 0.231964 9.955787 0.032814 -0.114482 -0.550979 -0.000000 0.000000 0.000000 0.000000 0.000000 0.000000 0.000000 
6.259533 17.680353 -3.865285 -169.567079 61.546459 -153.695853 4.208876 -3.914538 -1.561745 0.928330 -4.202280 -3.370752 -4.596812 -4.154578 -1.045529 7.485275 -17.482767 -9.626701 -2.439348 -0.167480 -0.495065 0.000000 0.000000 0.000000 8.852832 6.489741 -0.904503 -81.751363 -0.549839 37.197703 -179.545569 -63.803690 179.935288 6.278853 -8.071845 -0.502372 -0.169519 0.937321 -0.000000 0.000000 0.000000 0.000000 0.000000 0.000000 0.000000 3.133781 -12.485558 -1.079186 69.788646 -18.076561 26.513507 179.771644 71.401234 179.984594 0.336886 9.885256 0.042650 -0.120052 -0.545334 -0.000000 0.000000 0.000000 0.000000 0.000000 0.000000 0.000000 
6.492272 17.728008 -3.962413 -170.045627 61.187877 -154.358479 4.126096 -3.939296 -1.497865 0.925734 -4.217523 -3.360565 -4.540207 -4.171007 -1.028548 7.383097 -17.580367 -9.625831 -2.401489 -0.164666 -0.492255 0.000000 0.000000 0.000000 8.976574 6.492778 -0.919360 -81.773517 -0.472882 37.490521 -179.533567 -63.641207 179.939822 5.806249 -8.013730 -0.460507 -0.150318 0.934848 -0.000000 0.000000 0.000000 0.000000 0.000000 0.000000 0.000000 2.899897 -12.576903 -1.108115 70.003368 -18.692632 26.024116 179.783476 71.331713 179.984459 0.406156 9.862715 0.049203 -0.124192 -0.541291 -0.000000 0.000000 0.000000 0.000000 0.000000 0.000000 0.000000 
